<svg version="1.1" xmlns="http://www.w3.org/2000/svg" viewBox="0 0 241.728470016933 246.03134732996205" width="725.185410050799" height="738.0940419898861">
  <!-- svg-source:excalidraw -->
  
  <defs>
    <style class="style-fonts">
      @font-face {
        font-family: "Virgil";
        src: url("https://excalidraw.com/Virgil.woff2");
      }
      @font-face {
        font-family: "Cascadia";
        src: url("https://excalidraw.com/Cascadia.woff2");
      }
      @font-face {
        font-family: "Assistant";
        src: url("https://excalidraw.com/Assistant-Regular.woff2");
      }
    </style>
    
  </defs>
  <g stroke-linecap="round" transform="translate(63.87502360553481 10.000000000000227) rotate(0 55.74354103580981 56.747933132088406)"><path d="M111.49 56.75 C111.49 59.22, 111.33 61.71, 111.01 64.16 C110.69 66.6, 110.22 69.05, 109.59 71.44 C108.96 73.82, 108.17 76.18, 107.24 78.46 C106.32 80.75, 105.23 82.98, 104.02 85.12 C102.81 87.26, 101.44 89.34, 99.97 91.29 C98.49 93.25, 96.88 95.13, 95.16 96.87 C93.45 98.62, 91.6 100.27, 89.68 101.77 C87.75 103.27, 85.72 104.66, 83.62 105.89 C81.51 107.13, 79.32 108.23, 77.08 109.18 C74.83 110.12, 72.51 110.92, 70.17 111.56 C67.83 112.2, 65.42 112.69, 63.02 113.01 C60.61 113.33, 58.17 113.5, 55.74 113.5 C53.32 113.5, 50.87 113.33, 48.47 113.01 C46.06 112.69, 43.66 112.2, 41.32 111.56 C38.97 110.92, 36.65 110.12, 34.41 109.18 C32.17 108.23, 29.97 107.13, 27.87 105.89 C25.77 104.66, 23.73 103.27, 21.81 101.77 C19.88 100.27, 18.04 98.62, 16.33 96.87 C14.61 95.13, 13 93.25, 11.52 91.29 C10.04 89.34, 8.68 87.26, 7.47 85.12 C6.26 82.98, 5.17 80.75, 4.24 78.46 C3.32 76.18, 2.53 73.82, 1.9 71.44 C1.27 69.05, 0.79 66.6, 0.48 64.16 C0.16 61.71, 0 59.22, 0 56.75 C0 54.28, 0.16 51.79, 0.48 49.34 C0.79 46.89, 1.27 44.45, 1.9 42.06 C2.53 39.68, 3.32 37.31, 4.24 35.03 C5.17 32.75, 6.26 30.51, 7.47 28.37 C8.68 26.24, 10.04 24.16, 11.52 22.2 C13 20.24, 14.61 18.37, 16.33 16.62 C18.04 14.88, 19.88 13.23, 21.81 11.73 C23.73 10.22, 25.77 8.84, 27.87 7.6 C29.97 6.37, 32.17 5.26, 34.41 4.32 C36.65 3.37, 38.97 2.57, 41.32 1.93 C43.66 1.29, 46.06 0.81, 48.47 0.49 C50.87 0.16, 53.32 0, 55.74 0 C58.17 0, 60.61 0.16, 63.02 0.49 C65.42 0.81, 67.83 1.29, 70.17 1.93 C72.51 2.57, 74.83 3.37, 77.08 4.32 C79.32 5.26, 81.51 6.37, 83.62 7.6 C85.72 8.84, 87.75 10.22, 89.68 11.73 C91.6 13.23, 93.45 14.88, 95.16 16.62 C96.88 18.37, 98.49 20.24, 99.97 22.2 C101.44 24.16, 102.81 26.24, 104.02 28.37 C105.23 30.51, 106.32 32.75, 107.24 35.03 C108.17 37.31, 108.96 39.68, 109.59 42.06 C110.22 44.45, 110.69 46.89, 111.01 49.34 C111.33 51.79, 111.41 55.51, 111.49 56.75 C111.57 57.98, 111.57 55.51, 111.49 56.75" stroke="#1e1e1e" stroke-width="4" fill="none"></path></g><g stroke-linecap="round" transform="translate(9.99999999999909 63.252224060755) rotate(0 55.74354103580981 56.74793313208829)"><path d="M111.49 56.75 C111.49 59.22, 111.33 61.71, 111.01 64.16 C110.69 66.6, 110.22 69.05, 109.59 71.44 C108.96 73.82, 108.17 76.18, 107.24 78.46 C106.32 80.75, 105.23 82.98, 104.02 85.12 C102.81 87.26, 101.44 89.34, 99.97 91.29 C98.49 93.25, 96.88 95.13, 95.16 96.87 C93.45 98.62, 91.6 100.27, 89.68 101.77 C87.75 103.27, 85.72 104.66, 83.62 105.89 C81.51 107.13, 79.32 108.23, 77.08 109.18 C74.83 110.12, 72.51 110.92, 70.17 111.56 C67.83 112.2, 65.42 112.69, 63.02 113.01 C60.61 113.33, 58.17 113.5, 55.74 113.5 C53.32 113.5, 50.87 113.33, 48.47 113.01 C46.06 112.69, 43.66 112.2, 41.32 111.56 C38.97 110.92, 36.65 110.12, 34.41 109.18 C32.17 108.23, 29.97 107.13, 27.87 105.89 C25.77 104.66, 23.73 103.27, 21.81 101.77 C19.88 100.27, 18.04 98.62, 16.33 96.87 C14.61 95.13, 13 93.25, 11.52 91.29 C10.04 89.34, 8.68 87.26, 7.47 85.12 C6.26 82.98, 5.17 80.75, 4.24 78.46 C3.32 76.18, 2.53 73.82, 1.9 71.44 C1.27 69.05, 0.79 66.6, 0.48 64.16 C0.16 61.71, 0 59.22, 0 56.75 C0 54.28, 0.16 51.79, 0.48 49.34 C0.79 46.89, 1.27 44.45, 1.9 42.06 C2.53 39.68, 3.32 37.31, 4.24 35.03 C5.17 32.75, 6.26 30.51, 7.47 28.37 C8.68 26.24, 10.04 24.16, 11.52 22.2 C13 20.24, 14.61 18.37, 16.33 16.62 C18.04 14.88, 19.88 13.23, 21.81 11.73 C23.73 10.22, 25.77 8.84, 27.87 7.6 C29.97 6.37, 32.17 5.26, 34.41 4.32 C36.65 3.37, 38.97 2.57, 41.32 1.93 C43.66 1.29, 46.06 0.81, 48.47 0.49 C50.87 0.16, 53.32 0, 55.74 0 C58.17 0, 60.61 0.16, 63.02 0.49 C65.42 0.81, 67.83 1.29, 70.17 1.93 C72.51 2.57, 74.83 3.37, 77.08 4.32 C79.32 5.26, 81.51 6.37, 83.62 7.6 C85.72 8.84, 87.75 10.22, 89.68 11.73 C91.6 13.23, 93.45 14.88, 95.16 16.62 C96.88 18.37, 98.49 20.24, 99.97 22.2 C101.44 24.16, 102.81 26.24, 104.02 28.37 C105.23 30.51, 106.32 32.75, 107.24 35.03 C108.17 37.31, 108.96 39.68, 109.59 42.06 C110.22 44.45, 110.69 46.89, 111.01 49.34 C111.33 51.79, 111.41 55.51, 111.49 56.75 C111.57 57.98, 111.57 55.51, 111.49 56.75" stroke="#1e1e1e" stroke-width="4" fill="none"></path></g><g stroke-linecap="round" transform="translate(120.24138794531245 63.25217654238281) rotate(0 55.74354103580981 56.747933132088406)"><path d="M111.49 56.75 C111.49 59.22, 111.33 61.71, 111.01 64.16 C110.69 66.6, 110.22 69.05, 109.59 71.44 C108.96 73.82, 108.17 76.18, 107.24 78.46 C106.32 80.75, 105.23 82.98, 104.02 85.12 C102.81 87.26, 101.44 89.34, 99.97 91.29 C98.49 93.25, 96.88 95.13, 95.16 96.87 C93.45 98.62, 91.6 100.27, 89.68 101.77 C87.75 103.27, 85.72 104.66, 83.62 105.89 C81.51 107.13, 79.32 108.23, 77.08 109.18 C74.83 110.12, 72.51 110.92, 70.17 111.56 C67.83 112.2, 65.42 112.69, 63.02 113.01 C60.61 113.33, 58.17 113.5, 55.74 113.5 C53.32 113.5, 50.87 113.33, 48.47 113.01 C46.06 112.69, 43.66 112.2, 41.32 111.56 C38.97 110.92, 36.65 110.12, 34.41 109.18 C32.17 108.23, 29.97 107.13, 27.87 105.89 C25.77 104.66, 23.73 103.27, 21.81 101.77 C19.88 100.27, 18.04 98.62, 16.33 96.87 C14.61 95.13, 13 93.25, 11.52 91.29 C10.04 89.34, 8.68 87.26, 7.47 85.12 C6.26 82.98, 5.17 80.75, 4.24 78.46 C3.32 76.18, 2.53 73.82, 1.9 71.44 C1.27 69.05, 0.79 66.6, 0.48 64.16 C0.16 61.71, 0 59.22, 0 56.75 C0 54.28, 0.16 51.79, 0.48 49.34 C0.79 46.89, 1.27 44.45, 1.9 42.06 C2.53 39.68, 3.32 37.31, 4.24 35.03 C5.17 32.75, 6.26 30.51, 7.47 28.37 C8.68 26.24, 10.04 24.16, 11.52 22.2 C13 20.24, 14.61 18.37, 16.33 16.62 C18.04 14.88, 19.88 13.23, 21.81 11.73 C23.73 10.22, 25.77 8.84, 27.87 7.6 C29.97 6.37, 32.17 5.26, 34.41 4.32 C36.65 3.37, 38.97 2.57, 41.32 1.93 C43.66 1.29, 46.06 0.81, 48.47 0.49 C50.87 0.16, 53.32 0, 55.74 0 C58.17 0, 60.61 0.16, 63.02 0.49 C65.42 0.81, 67.83 1.29, 70.17 1.93 C72.51 2.57, 74.83 3.37, 77.08 4.32 C79.32 5.26, 81.51 6.37, 83.62 7.6 C85.72 8.84, 87.75 10.22, 89.68 11.73 C91.6 13.23, 93.45 14.88, 95.16 16.62 C96.88 18.37, 98.49 20.24, 99.97 22.2 C101.44 24.16, 102.81 26.24, 104.02 28.37 C105.23 30.51, 106.32 32.75, 107.24 35.03 C108.17 37.31, 108.96 39.68, 109.59 42.06 C110.22 44.45, 110.69 46.89, 111.01 49.34 C111.33 51.79, 111.41 55.51, 111.49 56.75 C111.57 57.98, 111.57 55.51, 111.49 56.75" stroke="#1e1e1e" stroke-width="4" fill="none"></path></g><g stroke-linecap="round" transform="translate(64.30064681409931 122.53548106578546) rotate(0 55.74354103580981 56.74793313208829)"><path d="M111.49 56.75 C111.49 59.22, 111.33 61.71, 111.01 64.16 C110.69 66.6, 110.22 69.05, 109.59 71.44 C108.96 73.82, 108.17 76.18, 107.24 78.46 C106.32 80.75, 105.23 82.98, 104.02 85.12 C102.81 87.26, 101.44 89.34, 99.97 91.29 C98.49 93.25, 96.88 95.13, 95.16 96.87 C93.45 98.62, 91.6 100.27, 89.68 101.77 C87.75 103.27, 85.72 104.66, 83.62 105.89 C81.51 107.13, 79.32 108.23, 77.08 109.18 C74.83 110.12, 72.51 110.92, 70.17 111.56 C67.83 112.2, 65.42 112.69, 63.02 113.01 C60.61 113.33, 58.17 113.5, 55.74 113.5 C53.32 113.5, 50.87 113.33, 48.47 113.01 C46.06 112.69, 43.66 112.2, 41.32 111.56 C38.97 110.92, 36.65 110.12, 34.41 109.18 C32.17 108.23, 29.97 107.13, 27.87 105.89 C25.77 104.66, 23.73 103.27, 21.81 101.77 C19.88 100.27, 18.04 98.62, 16.33 96.87 C14.61 95.13, 13 93.25, 11.52 91.29 C10.04 89.34, 8.68 87.26, 7.47 85.12 C6.26 82.98, 5.17 80.75, 4.24 78.46 C3.32 76.18, 2.53 73.82, 1.9 71.44 C1.27 69.05, 0.79 66.6, 0.48 64.16 C0.16 61.71, 0 59.22, 0 56.75 C0 54.28, 0.16 51.79, 0.48 49.34 C0.79 46.89, 1.27 44.45, 1.9 42.06 C2.53 39.68, 3.32 37.31, 4.24 35.03 C5.17 32.75, 6.26 30.51, 7.47 28.37 C8.68 26.24, 10.04 24.16, 11.52 22.2 C13 20.24, 14.61 18.37, 16.33 16.62 C18.04 14.88, 19.88 13.23, 21.81 11.73 C23.73 10.22, 25.77 8.84, 27.87 7.6 C29.97 6.37, 32.17 5.26, 34.41 4.32 C36.65 3.37, 38.97 2.57, 41.32 1.93 C43.66 1.29, 46.06 0.81, 48.47 0.49 C50.87 0.16, 53.32 0, 55.74 0 C58.17 0, 60.61 0.16, 63.02 0.49 C65.42 0.81, 67.83 1.29, 70.17 1.93 C72.51 2.57, 74.83 3.37, 77.08 4.32 C79.32 5.26, 81.51 6.37, 83.62 7.6 C85.72 8.84, 87.75 10.22, 89.68 11.73 C91.6 13.23, 93.45 14.88, 95.16 16.62 C96.88 18.37, 98.49 20.24, 99.97 22.2 C101.44 24.16, 102.81 26.24, 104.02 28.37 C105.23 30.51, 106.32 32.75, 107.24 35.03 C108.17 37.31, 108.96 39.68, 109.59 42.06 C110.22 44.45, 110.69 46.89, 111.01 49.34 C111.33 51.79, 111.41 55.51, 111.49 56.75 C111.57 57.98, 111.57 55.51, 111.49 56.75" stroke="#1e1e1e" stroke-width="4" fill="none"></path></g></svg>