<svg xmlns="http://www.w3.org/2000/svg" xmlns:xlink="http://www.w3.org/1999/xlink" width="900" zoomAndPan="magnify" viewBox="0 0 675 239.999995" height="320" preserveAspectRatio="xMidYMid meet" version="1.0"><defs><g/></defs><g fill="#10162f" fill-opacity="1"><g transform="translate(44.344545, 174.615879)"><g><path d="M 24.109375 0.890625 C 17.160156 0.890625 11.984375 -1.554688 8.578125 -6.453125 C 5.171875 -11.347656 3.46875 -18.765625 3.46875 -28.703125 L 3.46875 -70.203125 C 3.46875 -79.097656 5.445312 -85.820312 9.40625 -90.375 C 13.375 -94.9375 19.285156 -97.21875 27.140625 -97.21875 C 33.492188 -97.21875 38.425781 -95.945312 41.9375 -93.40625 C 45.457031 -90.863281 47.890625 -87.160156 49.234375 -82.296875 C 50.578125 -77.441406 51.25 -71.203125 51.25 -63.578125 L 32.40625 -63.578125 L 32.40625 -72.21875 C 32.40625 -74.53125 32.085938 -76.320312 31.453125 -77.59375 C 30.816406 -78.863281 29.675781 -79.5 28.03125 -79.5 C 24.375 -79.5 22.546875 -77.109375 22.546875 -72.328125 L 22.546875 -25.6875 C 22.546875 -22.769531 22.914062 -20.5625 23.65625 -19.0625 C 24.40625 -17.570312 25.71875 -16.828125 27.59375 -16.828125 C 29.457031 -16.828125 30.765625 -17.570312 31.515625 -19.0625 C 32.265625 -20.5625 32.640625 -22.769531 32.640625 -25.6875 L 32.640625 -39.46875 L 27.46875 -39.46875 L 27.46875 -56.078125 L 51.03125 -56.078125 L 51.03125 0 L 43.28125 0 L 40.03125 -8.078125 C 36.59375 -2.097656 31.285156 0.890625 24.109375 0.890625 Z M 24.109375 0.890625 "/></g></g></g><g fill="#10162f" fill-opacity="1"><g transform="translate(98.727986, 174.615879)"><g><path d="M 1.6875 0 L 10.984375 -96.328125 L 43.625 -96.328125 L 52.8125 0 L 34.546875 0 L 33.1875 -15.59375 L 21.53125 -15.59375 L 20.40625 0 Z M 22.984375 -30.953125 L 31.734375 -30.953125 L 27.46875 -79.953125 L 26.578125 -79.953125 Z M 22.984375 -30.953125 "/></g></g></g><g fill="#10162f" fill-opacity="1"><g transform="translate(153.111426, 174.615879)"><g><path d="M 4.265625 0 L 4.265625 -96.328125 L 23.546875 -96.328125 L 23.546875 -16.375 L 43.390625 -16.375 L 43.390625 0 Z M 4.265625 0 "/></g></g></g><g fill="#10162f" fill-opacity="1"><g transform="translate(197.627354, 174.615879)"><g><path d="M 1.6875 0 L 10.984375 -96.328125 L 43.625 -96.328125 L 52.8125 0 L 34.546875 0 L 33.1875 -15.59375 L 21.53125 -15.59375 L 20.40625 0 Z M 22.984375 -30.953125 L 31.734375 -30.953125 L 27.46875 -79.953125 L 26.578125 -79.953125 Z M 22.984375 -30.953125 "/></g></g></g><g fill="#10162f" fill-opacity="1"><g transform="translate(252.010794, 174.615879)"><g><path d="M 26.6875 0.890625 C 19.65625 0.890625 14.023438 -1.3125 9.796875 -5.71875 C 5.578125 -10.125 3.46875 -16.179688 3.46875 -23.890625 L 3.46875 -68.296875 C 3.46875 -77.859375 5.375 -85.066406 9.1875 -89.921875 C 13.007812 -94.785156 18.992188 -97.21875 27.140625 -97.21875 C 34.242188 -97.21875 39.960938 -95.273438 44.296875 -91.390625 C 48.628906 -87.503906 50.796875 -81.898438 50.796875 -74.578125 L 50.796875 -57.984375 L 31.625 -57.984375 L 31.625 -72.21875 C 31.625 -74.988281 31.285156 -76.894531 30.609375 -77.9375 C 29.941406 -78.976562 28.785156 -79.5 27.140625 -79.5 C 25.421875 -79.5 24.242188 -78.898438 23.609375 -77.703125 C 22.972656 -76.515625 22.65625 -74.757812 22.65625 -72.4375 L 22.65625 -24.109375 C 22.65625 -21.566406 23.023438 -19.71875 23.765625 -18.5625 C 24.515625 -17.40625 25.640625 -16.828125 27.140625 -16.828125 C 30.128906 -16.828125 31.625 -19.253906 31.625 -24.109375 L 31.625 -41.484375 L 51.03125 -41.484375 L 51.03125 -23.328125 C 51.03125 -7.179688 42.914062 0.890625 26.6875 0.890625 Z M 26.6875 0.890625 "/></g></g></g><g fill="#10162f" fill-opacity="1"><g transform="translate(305.160793, 174.615879)"><g><path d="M 12.5625 0 L 12.5625 -77.828125 L 1.125 -77.828125 L 1.125 -96.328125 L 43.28125 -96.328125 L 43.28125 -77.828125 L 31.84375 -77.828125 L 31.84375 0 Z M 12.5625 0 "/></g></g></g><g fill="#10162f" fill-opacity="1"><g transform="translate(349.564604, 174.615879)"><g><path d="M 3.359375 0 L 3.359375 -96.328125 L 21.984375 -96.328125 L 21.984375 0 Z M 3.359375 0 "/></g></g></g><g fill="#10162f" fill-opacity="1"><g transform="translate(375.018313, 174.615879)"><g><path d="M 2.6875 19.84375 L 2.6875 7.0625 L 38.359375 7.0625 L 38.359375 19.84375 Z M 2.6875 19.84375 "/></g></g></g><g fill="#10162f" fill-opacity="1"><g transform="translate(415.946062, 174.615879)"><g><path d="M 26.6875 0.890625 C 19.65625 0.890625 14.023438 -1.3125 9.796875 -5.71875 C 5.578125 -10.125 3.46875 -16.179688 3.46875 -23.890625 L 3.46875 -68.296875 C 3.46875 -77.859375 5.375 -85.066406 9.1875 -89.921875 C 13.007812 -94.785156 18.992188 -97.21875 27.140625 -97.21875 C 34.242188 -97.21875 39.960938 -95.273438 44.296875 -91.390625 C 48.628906 -87.503906 50.796875 -81.898438 50.796875 -74.578125 L 50.796875 -57.984375 L 31.625 -57.984375 L 31.625 -72.21875 C 31.625 -74.988281 31.285156 -76.894531 30.609375 -77.9375 C 29.941406 -78.976562 28.785156 -79.5 27.140625 -79.5 C 25.421875 -79.5 24.242188 -78.898438 23.609375 -77.703125 C 22.972656 -76.515625 22.65625 -74.757812 22.65625 -72.4375 L 22.65625 -24.109375 C 22.65625 -21.566406 23.023438 -19.71875 23.765625 -18.5625 C 24.515625 -17.40625 25.640625 -16.828125 27.140625 -16.828125 C 30.128906 -16.828125 31.625 -19.253906 31.625 -24.109375 L 31.625 -41.484375 L 51.03125 -41.484375 L 51.03125 -23.328125 C 51.03125 -7.179688 42.914062 0.890625 26.6875 0.890625 Z M 26.6875 0.890625 "/></g></g></g><g fill="#10162f" fill-opacity="1"><g transform="translate(469.096075, 174.615879)"><g><path d="M 27.25 0.890625 C 19.476562 0.890625 13.570312 -1.476562 9.53125 -6.21875 C 5.488281 -10.96875 3.46875 -17.640625 3.46875 -26.234375 L 3.46875 -72.109375 C 3.46875 -80.398438 5.488281 -86.65625 9.53125 -90.875 C 13.570312 -95.101562 19.476562 -97.21875 27.25 -97.21875 C 35.019531 -97.21875 40.925781 -95.101562 44.96875 -90.875 C 49.007812 -86.65625 51.03125 -80.398438 51.03125 -72.109375 L 51.03125 -26.234375 C 51.03125 -17.566406 49.007812 -10.878906 44.96875 -6.171875 C 40.925781 -1.460938 35.019531 0.890625 27.25 0.890625 Z M 27.25 -16.828125 C 28.96875 -16.828125 30.125 -17.570312 30.71875 -19.0625 C 31.320312 -20.5625 31.625 -22.65625 31.625 -25.34375 L 31.625 -72.4375 C 31.625 -74.53125 31.34375 -76.226562 30.78125 -77.53125 C 30.21875 -78.84375 29.078125 -79.5 27.359375 -79.5 C 24.148438 -79.5 22.546875 -77.070312 22.546875 -72.21875 L 22.546875 -25.234375 C 22.546875 -22.460938 22.878906 -20.367188 23.546875 -18.953125 C 24.222656 -17.535156 25.457031 -16.828125 27.25 -16.828125 Z M 27.25 -16.828125 "/></g></g></g><g fill="#10162f" fill-opacity="1"><g transform="translate(523.591645, 174.615879)"><g><path d="M 4.265625 -96.328125 L 30.84375 -96.328125 C 37.71875 -96.328125 42.875 -94.421875 46.3125 -90.609375 C 49.75 -86.796875 51.503906 -81.148438 51.578125 -73.671875 L 51.8125 -28.59375 C 51.882812 -19.101562 50.238281 -11.960938 46.875 -7.171875 C 43.507812 -2.390625 37.941406 0 30.171875 0 L 4.265625 0 Z M 27.03125 -17.046875 C 30.539062 -17.046875 32.296875 -18.765625 32.296875 -22.203125 L 32.296875 -71.875 C 32.296875 -74.050781 32.125 -75.679688 31.78125 -76.765625 C 31.445312 -77.847656 30.832031 -78.570312 29.9375 -78.9375 C 29.039062 -79.3125 27.660156 -79.5 25.796875 -79.5 L 23.65625 -79.5 L 23.65625 -17.046875 Z M 27.03125 -17.046875 "/></g></g></g><g fill="#10162f" fill-opacity="1"><g transform="translate(578.872162, 174.615879)"><g><path d="M 4.265625 0 L 4.265625 -96.328125 L 42.84375 -96.328125 L 42.84375 -77.71875 L 23.890625 -77.71875 L 23.890625 -58.984375 L 42.046875 -58.984375 L 42.046875 -40.8125 L 23.890625 -40.8125 L 23.890625 -18.734375 L 44.078125 -18.734375 L 44.078125 0 Z M 4.265625 0 "/></g></g></g><g fill="#10162f" fill-opacity="1"><g transform="translate(625.074077, 174.615879)"><g/></g></g><g fill="#10162f" fill-opacity="1"><g transform="translate(-27.325318, 186.499318)"><g><path d="M 34.5625 21.6875 L 34.5625 -153.15625 L 81.609375 -153.15625 L 81.609375 -139.546875 L 49.484375 -139.546875 L 49.484375 8.265625 L 81.609375 8.265625 L 81.609375 21.6875 Z M 34.5625 21.6875 "/></g></g></g><g fill="#10162f" fill-opacity="1"><g transform="translate(589.51856, 186.499318)"><g><path d="M 78.125 -153.15625 L 78.125 21.6875 L 31.078125 21.6875 L 31.078125 8.359375 L 63.203125 8.359375 L 63.203125 -139.546875 L 31.078125 -139.546875 L 31.078125 -153.15625 Z M 78.125 -153.15625 "/></g></g></g></svg>