<svg xmlns="http://www.w3.org/2000/svg" xmlns:xlink="http://www.w3.org/1999/xlink" width="500" zoomAndPan="magnify" viewBox="0 0 375 374.999991" height="500" preserveAspectRatio="xMidYMid meet" version="1.0"><defs><g/></defs><g fill="#e8e7d1" fill-opacity="1"><g transform="translate(164.752537, 338.757203)"><g><path d="M 106.234375 -240.453125 C 121.640625 -240.453125 134.953125 -237.75 146.171875 -232.34375 C 157.390625 -226.9375 166.785156 -219.703125 174.359375 -210.640625 C 181.929688 -201.585938 187.742188 -190.976562 191.796875 -178.8125 C 195.847656 -166.65625 198.414062 -153.679688 199.5 -139.890625 C 200.3125 -134.753906 200.582031 -129.550781 200.3125 -124.28125 C 200.039062 -119.007812 199.5 -113.671875 198.6875 -108.265625 C 198.144531 -102.585938 197.398438 -97.519531 196.453125 -93.0625 C 195.503906 -88.601562 194.492188 -84.882812 193.421875 -81.90625 C 193.148438 -81.632812 193.015625 -81.226562 193.015625 -80.6875 C 193.015625 -80.144531 192.742188 -79.46875 192.203125 -78.65625 C 191.660156 -77.3125 191.117188 -76.097656 190.578125 -75.015625 C 190.035156 -73.929688 189.492188 -72.710938 188.953125 -71.359375 C 185.171875 -62.710938 180.578125 -54.671875 175.171875 -47.234375 C 169.765625 -39.804688 163.816406 -32.710938 157.328125 -25.953125 C 156.785156 -25.140625 155.769531 -24.191406 154.28125 -23.109375 C 152.800781 -22.023438 151.113281 -20.8125 149.21875 -19.46875 C 148.132812 -18.65625 147.253906 -17.976562 146.578125 -17.4375 C 145.898438 -16.894531 145.296875 -16.351562 144.765625 -15.8125 C 144.222656 -15.269531 143.816406 -14.863281 143.546875 -14.59375 C 143.273438 -14.59375 142.460938 -14.050781 141.109375 -12.96875 C 140.566406 -12.4375 139.6875 -11.832031 138.46875 -11.15625 C 137.25 -10.476562 135.832031 -9.734375 134.21875 -8.921875 C 122.050781 -1.890625 108.535156 1.625 93.671875 1.625 C 83.398438 1.625 74.003906 -0.398438 65.484375 -4.453125 C 56.972656 -8.515625 49.472656 -13.921875 42.984375 -20.671875 C 36.492188 -27.429688 31.085938 -35.132812 26.765625 -43.78125 C 22.441406 -52.4375 19.195312 -61.359375 17.03125 -70.546875 C 14.863281 -80.015625 13.644531 -89.953125 13.375 -100.359375 C 13.101562 -110.765625 13.644531 -121.507812 15 -132.59375 C 17.4375 -149.625 21.085938 -164.828125 25.953125 -178.203125 C 30.816406 -191.585938 37.171875 -202.875 45.015625 -212.0625 C 48.253906 -216.125 52.304688 -219.910156 57.171875 -223.421875 C 62.035156 -226.929688 67.238281 -229.96875 72.78125 -232.53125 C 78.320312 -235.101562 84 -237.066406 89.8125 -238.421875 C 95.625 -239.773438 101.097656 -240.453125 106.234375 -240.453125 Z M 162.1875 -206.390625 C 160.03125 -208.285156 158.679688 -208.691406 158.140625 -207.609375 C 157.597656 -206.796875 158.546875 -203.820312 160.984375 -198.6875 C 161.785156 -196.789062 162.523438 -195.164062 163.203125 -193.8125 C 163.878906 -192.46875 164.625 -191.253906 165.4375 -190.171875 C 166.519531 -186.929688 168.140625 -183.550781 170.296875 -180.03125 C 173.003906 -174.894531 175.171875 -172.054688 176.796875 -171.515625 C 177.597656 -170.429688 178.539062 -170.363281 179.625 -171.3125 C 180.707031 -172.257812 181.25 -173.679688 181.25 -175.578125 C 181.25 -180.441406 178.546875 -186.925781 173.140625 -195.03125 C 168.546875 -200.976562 164.894531 -204.765625 162.1875 -206.390625 Z M 87.984375 -203.140625 C 81.503906 -203.140625 76.910156 -202.191406 74.203125 -200.296875 C 71.503906 -198.410156 68.664062 -194.359375 65.6875 -188.140625 C 62.175781 -181.117188 59.609375 -172.601562 57.984375 -162.59375 C 56.359375 -152.59375 55.273438 -141.507812 54.734375 -129.34375 C 54.734375 -126.375 54.734375 -123.941406 54.734375 -122.046875 C 54.734375 -120.160156 55.003906 -118.675781 55.546875 -117.59375 C 55.546875 -111.914062 56.019531 -105.765625 56.96875 -99.140625 C 57.914062 -92.515625 59.46875 -86.160156 61.625 -80.078125 C 63.789062 -73.992188 66.628906 -68.382812 70.140625 -63.25 C 73.660156 -58.113281 78.125 -53.925781 83.53125 -50.6875 C 86.226562 -49.0625 89.203125 -48.519531 92.453125 -49.0625 C 99.753906 -49.875 107.863281 -54.738281 116.78125 -63.65625 C 128.675781 -75.820312 137.460938 -93.9375 143.140625 -118 C 146.921875 -131.78125 147.59375 -144.347656 145.15625 -155.703125 C 142.1875 -169.492188 135.632812 -180.847656 125.5 -189.765625 C 115.363281 -198.679688 102.859375 -203.140625 87.984375 -203.140625 Z M 87.984375 -203.140625 "/></g></g></g><g fill="#e8e7d1" fill-opacity="1"><g transform="translate(3.241486, 279.854151)"><g><path d="M 156.109375 -250.59375 C 168.003906 -251.132812 177.195312 -246.671875 183.6875 -237.203125 C 187.738281 -231.253906 189.765625 -224.5 189.765625 -216.9375 C 189.765625 -213.957031 189.492188 -210.910156 188.953125 -207.796875 C 188.410156 -204.691406 187.867188 -202.875 187.328125 -202.34375 C 187.054688 -201.800781 186.921875 -201.257812 186.921875 -200.71875 C 186.921875 -200.445312 186.242188 -199.160156 184.890625 -196.859375 C 183.546875 -194.566406 182.601562 -192.742188 182.0625 -191.390625 C 178.28125 -187.609375 175.984375 -185.71875 175.171875 -185.71875 C 175.984375 -185.71875 175.304688 -185.175781 173.140625 -184.09375 C 171.242188 -183.007812 170.363281 -182.535156 170.5 -182.671875 C 170.632812 -182.804688 169.894531 -182.332031 168.28125 -181.25 C 167.738281 -180.976562 167.128906 -180.570312 166.453125 -180.03125 C 165.773438 -179.488281 164.894531 -178.945312 163.8125 -178.40625 C 161.113281 -177.0625 159.222656 -175.847656 158.140625 -174.765625 C 156.242188 -173.410156 155.296875 -172.734375 155.296875 -172.734375 C 153.941406 -172.191406 152.925781 -171.582031 152.25 -170.90625 C 151.582031 -170.226562 150.976562 -169.625 150.4375 -169.09375 C 150.164062 -168.28125 149.625 -167.875 148.8125 -167.875 C 148.8125 -167.875 148.675781 -167.875 148.40625 -167.875 C 148.40625 -167.601562 147.59375 -166.789062 145.96875 -165.4375 C 143.8125 -163.8125 141.851562 -162.253906 140.09375 -160.765625 C 138.332031 -159.285156 136.375 -157.460938 134.21875 -155.296875 L 131.375 -152.46875 L 133 -148.8125 C 133.269531 -147.726562 134.351562 -145.835938 136.25 -143.140625 C 136.78125 -142.054688 138.671875 -138.675781 141.921875 -133 C 142.460938 -131.101562 143.335938 -129.207031 144.546875 -127.3125 C 145.765625 -125.425781 147.050781 -123.398438 148.40625 -121.234375 C 150.03125 -118.265625 151.445312 -115.898438 152.65625 -114.140625 C 153.875 -112.390625 154.753906 -110.835938 155.296875 -109.484375 C 157.734375 -104.617188 160.4375 -99.144531 163.40625 -93.0625 C 166.382812 -86.976562 169.15625 -80.757812 171.71875 -74.40625 C 174.289062 -68.050781 176.585938 -61.765625 178.609375 -55.546875 C 180.640625 -49.328125 181.925781 -43.648438 182.46875 -38.515625 C 183.28125 -32.296875 183.144531 -27.160156 182.0625 -23.109375 C 179.894531 -13.109375 176.378906 -7.023438 171.515625 -4.859375 C 169.359375 -3.515625 166.992188 -2.503906 164.421875 -1.828125 C 161.859375 -1.148438 159.222656 -0.8125 156.515625 -0.8125 C 150.566406 -0.8125 145.226562 -3.039062 140.5 -7.5 C 135.769531 -11.957031 131.578125 -17.363281 127.921875 -23.71875 C 124.273438 -30.070312 121.234375 -36.5625 118.796875 -43.1875 C 116.367188 -49.8125 114.34375 -55.285156 112.71875 -59.609375 C 111.375 -62.847656 109.820312 -66.832031 108.0625 -71.5625 C 106.300781 -76.289062 104.207031 -82.035156 101.78125 -88.796875 C 99.070312 -96.910156 96.90625 -101.507812 95.28125 -102.59375 C 94.75 -103.132812 94.078125 -103.132812 93.265625 -102.59375 C 92.453125 -102.050781 91.097656 -100.765625 89.203125 -98.734375 C 87.316406 -96.703125 85.289062 -93.660156 83.125 -89.609375 C 82.582031 -88.523438 81.703125 -86.96875 80.484375 -84.9375 C 79.265625 -82.914062 77.441406 -80.015625 75.015625 -76.234375 C 72.847656 -73.253906 71.019531 -70.207031 69.53125 -67.09375 C 68.050781 -63.988281 66.90625 -59.0625 66.09375 -52.3125 C 60.957031 -43.65625 56.695312 -35.675781 53.3125 -28.375 C 49.9375 -21.082031 47.171875 -14.867188 45.015625 -9.734375 C 43.117188 -4.054688 40.414062 -0.539062 36.90625 0.8125 C 35.007812 1.894531 32.84375 2.4375 30.40625 2.4375 C 27.164062 2.4375 24.125 1.351562 21.28125 -0.8125 C 18.445312 -2.976562 16.21875 -5.546875 14.59375 -8.515625 C 13.238281 -13.378906 13.035156 -20.742188 13.984375 -30.609375 C 14.929688 -40.484375 17.03125 -50.285156 20.28125 -60.015625 C 22.164062 -65.691406 24.117188 -71.503906 26.140625 -77.453125 C 28.171875 -83.398438 30.675781 -89.476562 33.65625 -95.6875 C 35.550781 -99.75 37.710938 -104.414062 40.140625 -109.6875 C 42.578125 -114.957031 45.28125 -120.972656 48.25 -127.734375 C 51.226562 -133.140625 53.726562 -137.800781 55.75 -141.71875 C 57.78125 -145.632812 59.472656 -149.082031 60.828125 -152.0625 C 62.171875 -154.488281 63.046875 -156.847656 63.453125 -159.140625 C 63.859375 -161.441406 63.789062 -163.40625 63.25 -165.03125 C 61.363281 -169.625 57.785156 -175.4375 52.515625 -182.46875 C 47.242188 -189.5 41.5 -196.125 35.28125 -202.34375 C 33.925781 -203.957031 32.164062 -205.578125 30 -207.203125 C 27.84375 -208.828125 25.410156 -210.71875 22.703125 -212.875 C 19.191406 -216.394531 17.164062 -218.757812 16.625 -219.96875 C 16.082031 -221.1875 16.625 -222.878906 18.25 -225.046875 C 22.03125 -229.097656 26.757812 -231.125 32.4375 -231.125 C 35.945312 -231.125 39.59375 -230.515625 43.375 -229.296875 C 47.164062 -228.085938 50.953125 -226.535156 54.734375 -224.640625 C 58.523438 -222.742188 62.175781 -220.710938 65.6875 -218.546875 C 69.195312 -216.390625 72.304688 -214.226562 75.015625 -212.0625 C 80.148438 -208.28125 84.070312 -205.578125 86.78125 -203.953125 C 89.476562 -202.609375 91.300781 -201.9375 92.25 -201.9375 C 93.195312 -201.9375 94.207031 -202.472656 95.28125 -203.546875 C 96.632812 -204.898438 98.328125 -206.320312 100.359375 -207.8125 C 102.390625 -209.300781 104.484375 -211.125 106.640625 -213.28125 C 108.804688 -215.445312 110.898438 -217.742188 112.921875 -220.171875 C 114.953125 -222.609375 117.585938 -225.445312 120.828125 -228.6875 C 122.992188 -230.851562 124.953125 -232.675781 126.703125 -234.15625 C 128.460938 -235.644531 129.75 -236.796875 130.5625 -237.609375 C 139.21875 -244.910156 147.734375 -249.238281 156.109375 -250.59375 Z M 166.25 -237.609375 C 164.082031 -238.148438 162.863281 -238.421875 162.59375 -238.421875 C 158.269531 -238.421875 156.109375 -236.9375 156.109375 -233.96875 C 156.109375 -232.613281 157.597656 -231.125 160.578125 -229.5 C 163.003906 -228.15625 165.03125 -226.601562 166.65625 -224.84375 C 168.28125 -223.082031 169.628906 -221.125 170.703125 -218.96875 C 173.140625 -214.363281 175.570312 -212.0625 178 -212.0625 C 180.164062 -212.0625 181.25 -213.34375 181.25 -215.90625 C 181.25 -218.476562 180.300781 -221.660156 178.40625 -225.453125 C 176.789062 -228.421875 175.101562 -230.914062 173.34375 -232.9375 C 171.582031 -234.96875 169.21875 -236.523438 166.25 -237.609375 Z M 166.25 -237.609375 "/></g></g></g><g fill="#be3058" fill-opacity="1"><g transform="translate(110.543668, 299.688559)"><g><path d="M 69.765625 -108.40625 C 71.859375 -108.875 74.015625 -108.523438 76.234375 -107.359375 C 80.304688 -104.910156 82.925781 -101.0625 84.09375 -95.8125 C 84.332031 -94.644531 84.507812 -93.070312 84.625 -91.09375 C 84.738281 -89.113281 84.851562 -86.664062 84.96875 -83.75 C 85.207031 -78.15625 85.035156 -73.257812 84.453125 -69.0625 C 83.984375 -64.050781 82.816406 -58.25 80.953125 -51.65625 C 79.085938 -45.070312 76.609375 -38.546875 73.515625 -32.078125 C 70.429688 -25.609375 66.847656 -19.691406 62.765625 -14.328125 C 58.691406 -8.972656 54.265625 -4.953125 49.484375 -2.265625 C 47.265625 -0.640625 45.164062 0.40625 43.1875 0.875 C 42.601562 1.101562 42.078125 1.21875 41.609375 1.21875 C 41.140625 1.21875 40.617188 1.21875 40.046875 1.21875 C 38.296875 1.21875 36.367188 0.640625 34.265625 -0.515625 C 32.171875 -1.679688 30.597656 -2.910156 29.546875 -4.203125 C 26.628906 -7.460938 24.179688 -13.753906 22.203125 -23.078125 C 21.972656 -24.359375 21.476562 -26.832031 20.71875 -30.5 C 19.957031 -34.175781 18.9375 -39.222656 17.65625 -45.640625 C 16.257812 -52.859375 14.800781 -59.5 13.28125 -65.5625 C 11.769531 -71.625 10.316406 -77.160156 8.921875 -82.171875 C 7.285156 -87.890625 6.351562 -91.617188 6.125 -93.359375 C 6.125 -95.234375 6.472656 -96.578125 7.171875 -97.390625 C 7.867188 -98.203125 9.035156 -98.726562 10.671875 -98.96875 C 13.929688 -98.96875 17.425781 -96.109375 21.15625 -90.390625 C 22.09375 -88.992188 23.113281 -87.21875 24.21875 -85.0625 C 25.320312 -82.90625 26.425781 -80.660156 27.53125 -78.328125 C 28.644531 -75.992188 29.640625 -73.660156 30.515625 -71.328125 C 31.390625 -69.003906 32 -67.023438 32.34375 -65.390625 C 33.15625 -62.472656 34.054688 -58.859375 35.046875 -54.546875 C 36.046875 -50.234375 37.1875 -45.046875 38.46875 -38.984375 C 40.445312 -29.191406 41.492188 -24.238281 41.609375 -24.125 C 41.722656 -24.125 42.015625 -24.382812 42.484375 -24.90625 C 42.953125 -25.4375 43.535156 -26.078125 44.234375 -26.828125 C 44.929688 -27.585938 45.660156 -28.429688 46.421875 -29.359375 C 47.179688 -30.296875 47.789062 -31.117188 48.25 -31.828125 C 50.9375 -35.898438 53.359375 -40.820312 55.515625 -46.59375 C 57.671875 -52.363281 59.15625 -57.875 59.96875 -63.125 C 60.207031 -64.863281 60.351562 -67.25 60.40625 -70.28125 C 60.46875 -73.3125 60.441406 -77.046875 60.328125 -81.484375 C 59.859375 -92.429688 60.207031 -99.128906 61.375 -101.578125 C 62.1875 -103.097656 63.378906 -104.441406 64.953125 -105.609375 C 66.523438 -106.773438 68.128906 -107.707031 69.765625 -108.40625 Z M 73.78125 -104.734375 C 73.082031 -104.960938 72.441406 -104.960938 71.859375 -104.734375 C 70.929688 -104.378906 71.109375 -103.445312 72.390625 -101.9375 C 72.617188 -101.695312 72.789062 -101.429688 72.90625 -101.140625 C 73.019531 -100.847656 73.195312 -100.585938 73.4375 -100.359375 C 74.832031 -98.609375 75.820312 -97.207031 76.40625 -96.15625 C 76.988281 -95.113281 77.457031 -93.773438 77.8125 -92.140625 C 77.8125 -92.023438 77.894531 -91.675781 78.0625 -91.09375 C 78.238281 -90.507812 78.414062 -89.894531 78.59375 -89.25 C 78.769531 -88.613281 78.972656 -88.0625 79.203125 -87.59375 C 79.429688 -87.125 79.722656 -86.890625 80.078125 -86.890625 C 80.773438 -86.890625 81.242188 -87.535156 81.484375 -88.828125 C 81.941406 -90.453125 81.734375 -92.546875 80.859375 -95.109375 C 79.984375 -97.679688 78.734375 -100.015625 77.109375 -102.109375 C 76.054688 -103.503906 74.945312 -104.378906 73.78125 -104.734375 Z M 73.78125 -104.734375 "/></g></g></g><g fill="#be3058" fill-opacity="1"><g transform="translate(152.803718, 347.719026)"><g><path d="M 49.125 -104.03125 C 50.757812 -103.914062 52.21875 -103.738281 53.5 -103.5 C 54.78125 -103.269531 55.832031 -102.863281 56.65625 -102.28125 C 58.28125 -101.226562 59.554688 -99.859375 60.484375 -98.171875 C 61.421875 -96.484375 61.773438 -94.707031 61.546875 -92.84375 C 61.429688 -91.09375 60.90625 -89.632812 59.96875 -88.46875 C 59.039062 -87.300781 57.929688 -86.335938 56.640625 -85.578125 C 55.359375 -84.828125 53.929688 -84.242188 52.359375 -83.828125 C 50.785156 -83.421875 49.300781 -83.046875 47.90625 -82.703125 C 46.976562 -82.460938 45.753906 -82.082031 44.234375 -81.5625 C 42.722656 -81.039062 41.265625 -80.398438 39.859375 -79.640625 C 38.460938 -78.878906 37.238281 -77.972656 36.1875 -76.921875 C 35.144531 -75.878906 34.625 -74.71875 34.625 -73.4375 C 34.625 -72.269531 35.207031 -71.101562 36.375 -69.9375 C 38 -68.300781 41.4375 -65.96875 46.6875 -62.9375 C 49.363281 -61.539062 52.070312 -60.023438 54.8125 -58.390625 C 57.550781 -56.765625 60.085938 -54.929688 62.421875 -52.890625 C 64.753906 -50.847656 66.765625 -48.570312 68.453125 -46.0625 C 70.140625 -43.5625 71.273438 -40.617188 71.859375 -37.234375 C 71.859375 -36.890625 71.882812 -36.160156 71.9375 -35.046875 C 72 -33.941406 72 -32.71875 71.9375 -31.375 C 71.882812 -30.039062 71.828125 -28.789062 71.765625 -27.625 C 71.710938 -26.457031 71.628906 -25.582031 71.515625 -25 C 69.878906 -19.289062 67.019531 -14.21875 62.9375 -9.78125 C 58.863281 -5.351562 53.96875 -2.269531 48.25 -0.53125 C 46.625 -0.175781 44.960938 0.113281 43.265625 0.34375 C 41.578125 0.582031 39.742188 0.703125 37.765625 0.703125 C 34.617188 0.703125 31.328125 0.410156 27.890625 -0.171875 C 24.453125 -0.753906 21.332031 -1.742188 18.53125 -3.140625 C 15.738281 -4.773438 13.085938 -6.84375 10.578125 -9.34375 C 8.066406 -11.851562 6.40625 -14.039062 5.59375 -15.90625 C 4.78125 -17.539062 4.578125 -19.085938 4.984375 -20.546875 C 5.390625 -22.003906 6.234375 -23.429688 7.515625 -24.828125 C 7.867188 -25.179688 8.191406 -25.441406 8.484375 -25.609375 C 8.773438 -25.785156 9.035156 -25.929688 9.265625 -26.046875 C 10.203125 -26.867188 11.660156 -27.28125 13.640625 -27.28125 C 14.804688 -27.28125 16.113281 -27.132812 17.5625 -26.84375 C 19.019531 -26.550781 20.625 -26.171875 22.375 -25.703125 C 27.507812 -24.304688 32.234375 -23.609375 36.546875 -23.609375 C 37.472656 -23.609375 38.429688 -23.664062 39.421875 -23.78125 C 40.410156 -23.894531 41.375 -24.066406 42.3125 -24.296875 C 44.988281 -25.117188 47.023438 -26.519531 48.421875 -28.5 C 49.828125 -30.476562 50.351562 -32.34375 50 -34.09375 C 49.882812 -34.789062 49.1875 -35.664062 47.90625 -36.71875 C 46.625 -37.769531 45.195312 -38.816406 43.625 -39.859375 C 42.050781 -40.910156 40.503906 -41.84375 38.984375 -42.65625 C 37.472656 -43.476562 36.425781 -44.003906 35.84375 -44.234375 C 34.207031 -44.929688 32.628906 -45.773438 31.109375 -46.765625 C 29.597656 -47.753906 28.03125 -48.71875 26.40625 -49.65625 C 21.625 -53.03125 18.066406 -57.226562 15.734375 -62.25 C 13.054688 -68.3125 12.882812 -74.488281 15.21875 -80.78125 C 16.375 -83.8125 17.769531 -86.519531 19.40625 -88.90625 C 21.039062 -91.300781 23.195312 -93.429688 25.875 -95.296875 C 29.488281 -98.085938 33.160156 -100.238281 36.890625 -101.75 C 40.617188 -103.269531 44.695312 -104.03125 49.125 -104.03125 Z M 11.71875 -19.40625 C 10.894531 -19.875 10.3125 -19.875 9.96875 -19.40625 C 9.5 -18.59375 9.5 -17.546875 9.96875 -16.265625 C 10.3125 -15.441406 11.125 -14.414062 12.40625 -13.1875 C 13.695312 -11.96875 14.863281 -11.128906 15.90625 -10.671875 C 17.1875 -10.085938 18.296875 -10.023438 19.234375 -10.484375 C 19.234375 -10.722656 19.144531 -11.046875 18.96875 -11.453125 C 18.789062 -11.859375 17.890625 -12.820312 16.265625 -14.34375 C 15.328125 -15.269531 14.625 -15.992188 14.15625 -16.515625 C 13.695312 -17.046875 13.289062 -17.484375 12.9375 -17.828125 C 12.582031 -18.179688 12.347656 -18.503906 12.234375 -18.796875 C 12.117188 -19.085938 11.945312 -19.289062 11.71875 -19.40625 Z M 11.71875 -19.40625 "/></g></g></g></svg>